<?xml version="1.0" encoding="UTF-8"?>
<svg width="170px" height="26px" viewBox="0 0 170 26" version="1.1" xmlns="http://www.w3.org/2000/svg" xmlns:xlink="http://www.w3.org/1999/xlink">
    <title>Logo-Fabricants</title>
    <g id="Maquettes-LesFabricants--fvz-💥" stroke="none" stroke-width="1" fill="none" fill-rule="evenodd">
        <g id="LesFabricants---Homepage-Copy" transform="translate(-127.000000, -4004.000000)">
            <g id="Group-4" transform="translate(0.000000, 3680.000000)">
                <g id="Footer" transform="translate(127.000000, 90.000000)">
                    <g id="FOOTER" transform="translate(0.000000, 48.000000)">
                        <g id="Logo-Fabricants" transform="translate(0.000000, 186.000000)">
                            <g id="Label-Fabricants" transform="translate(37.599998, 0.800000)" fill="#FFFFFF">
                                <path d="M56.4378444,2.16448862 C55.3977236,2.16448862 54.5513612,2.99339888 54.5513612,4.01351464 C54.5513612,5.0489904 55.3977236,5.89114205 56.4378444,5.89114205 C57.4779653,5.89114205 58.3237954,5.0489904 58.3237954,4.01351464 C58.3237954,2.99339888 57.4779653,2.16448862 56.4378444,2.16448862" id="Fill-2"></path>
                                <path d="M22.1115147,15.3370644 C22.1115147,18.0441318 20.0046579,20.1648709 17.3149288,20.1648709 C14.6092306,20.1648709 12.4901308,18.0441318 12.4901308,15.3370644 C12.4901308,12.6294675 14.6092306,10.5081987 17.3149288,10.5081987 C20.0046579,10.5081987 22.1115147,12.6294675 22.1115147,15.3370644 L22.1115147,15.3370644 Z M22.1115147,8.76563335 C20.7424304,7.69149277 19.0214935,7.10675351 17.204742,7.10675351 C12.5976561,7.10675351 8.98917138,10.7216497 8.98917138,15.3370644 C8.98917138,19.9514198 12.5976561,23.566316 17.204742,23.566316 C19.0220258,23.566316 20.7429627,22.9810471 22.1115147,21.9069066 L22.1115147,23.402123 L25.6146034,23.402123 L25.6146034,7.29425143 L22.1115147,7.29425143 L22.1115147,8.76563335 Z" id="Fill-4"></path>
                                <path d="M40.217655,15.3370644 C40.217655,18.0441318 38.0985552,20.1648709 35.3928571,20.1648709 C32.6876912,20.1648709 30.5680591,18.0441318 30.5680591,15.3370644 C30.5680591,12.6294675 32.6876912,10.5081987 35.3928571,10.5081987 C38.0985552,10.5081987 40.217655,12.6294675 40.217655,15.3370644 M35.4764287,7.10675351 C33.6495634,7.10675351 31.9291589,7.69837828 30.5680591,8.78364163 L30.5680591,3.44577732 L27.0947794,3.44577732 L27.0947794,23.402123 L30.5680591,23.402123 L30.5680591,21.8899576 C31.9291589,22.9746913 33.6495634,23.566316 35.4764287,23.566316 C40.08245,23.566316 43.6909347,19.9514198 43.6909347,15.3370644 C43.6909347,10.7216497 40.08245,7.10675351 35.4764287,7.10675351" id="Fill-6"></path>
                                <path d="M48.796363,8.22655037 L48.796363,7.21755737 L45.3230834,7.21755737 L45.3225511,23.4016992 L48.7952984,23.4016992 L48.796363,14.5654629 C48.796363,11.0024729 51.2997859,10.6179432 52.3761034,10.6179432 L53.4204826,10.6179432 L53.4204826,7.21755737 L52.3761034,7.21755737 C50.9734839,7.21755737 49.7720752,7.55653664 48.796363,8.22655037" id="Fill-8"></path>
                                <polygon id="Fill-10" points="54.7007788 23.4017522 58.1745907 23.4017522 58.1745907 7.21708068 54.7007788 7.21708068"></polygon>
                                <path d="M71.635,17.8508606 C70.8599662,19.299997 69.3418369,20.1649238 67.573525,20.1649238 C64.8225811,20.1649238 62.7487271,18.0892054 62.7487271,15.3371174 C62.7487271,12.5844997 64.8225811,10.5082517 67.573525,10.5082517 C69.3668552,10.5082517 70.880726,11.3737081 71.5248132,12.7677604 L72.0065477,13.809592 L74.9539116,12.0940391 L74.5573456,11.2375868 C73.3756321,8.68941598 70.6992106,7.10680648 67.573525,7.10680648 C62.8264434,7.10680648 59.246703,10.6454323 59.246703,15.3371174 C59.246703,20.0282728 62.8264434,23.566369 67.573525,23.566369 C70.6278819,23.566369 73.3383708,22.0107719 74.6478372,19.5070922 L75.1029566,18.6358095 L72.1508019,16.8895366 L71.635,17.8508606 Z" id="Fill-12"></path>
                                <path d="M89.0081585,15.3370644 C89.0081585,18.0441318 86.9007694,20.1648709 84.210508,20.1648709 C81.5048098,20.1648709 79.38571,18.0441318 79.38571,15.3370644 C79.38571,12.6294675 81.5048098,10.5081987 84.210508,10.5081987 C86.9007694,10.5081987 89.0081585,12.6294675 89.0081585,15.3370644 L89.0081585,15.3370644 Z M89.0081585,8.74921404 C87.6465264,7.67242518 85.9623185,7.10675351 84.1003212,7.10675351 C79.4932353,7.10675351 75.8847506,10.7216497 75.8847506,15.3370644 C75.8847506,19.9514198 79.4932353,23.566316 84.1003212,23.566316 C85.9623185,23.566316 87.6465264,23.0006444 89.0081585,21.9243852 L89.0081585,23.263883 L92.509118,23.263883 L92.509118,7.40918659 L89.0081585,7.40918659 L89.0081585,8.74921404 Z" id="Fill-13"></path>
                                <path d="M101.374312,7.10675351 C99.8519239,7.10675351 98.5392637,7.49446106 97.4634786,8.26193133 L97.4634786,7.40918659 L93.9896666,7.40918659 L93.9896666,23.263883 L97.4634786,23.263883 L97.4634786,14.9514755 C97.4634786,12.0860413 98.8128677,10.5081987 101.264125,10.5081987 C103.215549,10.5081987 104.29027,11.625771 104.29027,13.6559391 L104.29027,23.263883 L107.791761,23.263883 L107.791761,13.6559391 C107.791761,9.73860981 105.212751,7.10675351 101.374312,7.10675351" id="Fill-14"></path>
                                <path d="M114.495803,3.44572435 L110.994844,3.44572435 L110.994844,7.40913362 L107.948472,7.40913362 L107.948472,10.8386505 L110.994844,10.8386505 L110.994844,18.7522277 C110.994844,20.3777393 111.463271,21.6017722 112.386285,22.3920177 C113.194321,23.0821583 114.295125,23.4179596 115.751507,23.4179596 C116.342896,23.4179596 117.009872,23.3623459 117.733805,23.2521776 L118.621155,23.1176452 L118.621155,19.8496731 L117.484687,19.9487186 C116.647374,20.0223407 115.087725,20.160051 114.727888,19.8321945 C114.658156,19.7686359 114.495803,19.5371766 114.495803,18.7522277 L114.495803,10.8386505 L118.621155,10.8386505 L118.621155,7.40913362 L114.495803,7.40913362 L114.495803,3.44572435 Z" id="Fill-15"></path>
                                <path d="M126.178426,13.6984704 L126.111888,13.9548235 L126.177893,13.6984704 C124.022065,13.1486884 123.257145,12.8181836 123.257145,12.0581285 C123.257145,10.9876955 124.401065,10.5083576 125.534871,10.5083576 C126.780461,10.5083576 127.742865,11.0475465 128.110155,11.9511381 L128.558354,13.0554691 L131.577579,11.3388568 L131.195917,10.4813452 C130.257467,8.36855091 128.141561,7.10691241 125.534871,7.10691241 C122.202119,7.10691241 119.7828,9.18898669 119.7828,12.0581285 C119.7828,15.5173061 122.913809,16.3229115 125.200052,16.9113584 C127.393674,17.4759707 128.172434,17.8181279 128.172434,18.6147292 C128.172434,20.0903484 126.067174,20.1650298 125.645058,20.1650298 C124.077424,20.1650298 122.926052,19.5246767 122.566215,18.4521251 L122.160067,17.2402742 L119.096129,19.0114409 L119.406462,19.834525 C120.287424,22.1713634 122.618913,23.5664749 125.645058,23.5664749 C129.122063,23.5664749 131.645714,21.483871 131.645714,18.6147292 C131.645714,15.0914634 128.355546,14.253549 126.178426,13.6984704" id="Fill-16"></path>
                                <path d="M9.83787592,7.29451625 L6.29912294,7.29451625 C6.31668895,5.98997569 6.62382801,5.05407509 7.21362017,4.51117859 C7.8294952,3.94497727 8.85950228,3.71457729 10.2690417,3.82103797 L11.3948634,3.90949038 L11.3948634,0.187074189 L10.4297973,0.114511437 C7.95671571,-0.0756347512 5.98879006,0.486329332 4.57712145,1.786103 C3.21708627,3.04032632 2.48729832,4.94337717 2.46334466,7.29451625 L0.298999055,7.29451625 L0.298999055,10.9327173 L2.46334466,10.9327173 L2.46334466,23.4018581 L6.29805833,23.4018581 L6.29805833,10.9327173 L9.83787592,10.9327173 L9.83787592,7.29451625 Z" id="Fill-17"></path>
                            </g>
                            <g id="Group">
                                <path d="M23.7502876,25.5999985 L1.84971087,25.5999985 C0.828670471,25.5999985 0,24.7719246 0,23.7502431 L0,1.84975542 C0,0.82869043 0.828670471,0 1.84971087,0 L23.7502876,0 C24.771328,0 25.5999985,0.82869043 25.5999985,1.84975542 L25.5999985,23.7502431 C25.5999985,24.7719246 24.771328,25.5999985 23.7502876,25.5999985" id="bck-logo" fill="#55F0C8"></path>
                                <polygon id="F" fill="#323C52" points="21.989268 19.1882415 23.9999986 17.1820729 13.1900727 6.39999962 2.39999986 17.1777413 4.41135084 19.1839099 9.18288089 14.424674 13.9705414 19.1999989 15.9818924 17.1938303 11.186787 12.4110798 13.1900727 10.4123368"></polygon>
                            </g>
                        </g>
                    </g>
                </g>
            </g>
        </g>
    </g>
</svg>