<svg width="227" height="41" viewBox="0 0 227 41" fill="none" xmlns="http://www.w3.org/2000/svg">
<rect width="227" height="41" fill="#6A6A6A"/>
<path d="M-366 -2745C-366 -2746.1 -365.105 -2747 -364 -2747H4191C4192.1 -2747 4193 -2746.1 4193 -2745V11416C4193 11417.1 4192.1 11418 4191 11418H-364C-365.105 11418 -366 11417.1 -366 11416V-2745Z" fill="#404040"/>
<path d="M-364 -2746H4191V-2748H-364V-2746ZM4192 -2745V11416H4194V-2745H4192ZM4191 11417H-364V11419H4191V11417ZM-365 11416V-2745H-367V11416H-365ZM-364 11417C-364.552 11417 -365 11416.6 -365 11416H-367C-367 11417.7 -365.657 11419 -364 11419V11417ZM4192 11416C4192 11416.6 4191.55 11417 4191 11417V11419C4192.66 11419 4194 11417.7 4194 11416H4192ZM4191 -2746C4191.55 -2746 4192 -2745.55 4192 -2745H4194C4194 -2746.66 4192.66 -2748 4191 -2748V-2746ZM-364 -2748C-365.657 -2748 -367 -2746.66 -367 -2745H-365C-365 -2745.55 -364.552 -2746 -364 -2746V-2748Z" fill="white" fill-opacity="0.1"/>
<g clip-path="url(#clip0_0_1)">
<rect width="1728" height="8873" transform="translate(-72 -36)" fill="white"/>
<path fill-rule="evenodd" clip-rule="evenodd" d="M96.7217 4.30273C94.9336 4.30273 93.4785 5.70903 93.4785 7.43972C93.4785 9.19647 94.9336 10.6252 96.7217 10.6252C98.5099 10.6252 99.9641 9.19647 99.9641 7.43972C99.9641 5.70903 98.5099 4.30273 96.7217 4.30273Z" fill="#191C20"/>
<path fill-rule="evenodd" clip-rule="evenodd" d="M37.7083 26.6507C37.7083 31.2434 34.0862 34.8414 29.462 34.8414C24.8104 34.8414 21.1673 31.2434 21.1673 26.6507C21.1673 22.0571 24.8104 18.4583 29.462 18.4583C34.0862 18.4583 37.7083 22.0571 37.7083 26.6507ZM37.7083 15.5019C35.3546 13.6795 32.3959 12.6875 29.2726 12.6875C21.3521 12.6875 15.1484 18.8204 15.1484 26.6507C15.1484 34.4792 21.3521 40.6121 29.2726 40.6121C32.3969 40.6121 35.3555 39.6192 37.7083 37.7969V40.3336H43.7308V13.0056H37.7083V15.5019Z" fill="#191C20"/>
<path fill-rule="evenodd" clip-rule="evenodd" d="M68.8361 26.6508C68.8361 31.2436 65.193 34.8415 60.5414 34.8415C55.8907 34.8415 52.2466 31.2436 52.2466 26.6508C52.2466 22.0572 55.8907 18.4584 60.5414 18.4584C65.193 18.4584 68.8361 22.0572 68.8361 26.6508ZM60.6851 12.6876C57.5443 12.6876 54.5866 13.6914 52.2466 15.5326V6.47656H46.2754V40.3337H52.2466V37.7682C54.5866 39.6085 57.5443 40.6123 60.6851 40.6123C68.6037 40.6123 74.8074 34.4794 74.8074 26.6508C74.8074 18.8205 68.6037 12.6876 60.6851 12.6876Z" fill="#191C20"/>
<path fill-rule="evenodd" clip-rule="evenodd" d="M83.5835 14.5868V12.875H77.6122L77.6113 40.3324H83.5817L83.5835 25.3412C83.5835 19.2963 87.8873 18.644 89.7377 18.644H91.5332V12.875H89.7377C87.3264 12.875 85.2609 13.4501 83.5835 14.5868Z" fill="#191C20"/>
<path fill-rule="evenodd" clip-rule="evenodd" d="M93.7344 40.3333H99.7065V12.875H93.7344V40.3333Z" fill="#191C20"/>
<path fill-rule="evenodd" clip-rule="evenodd" d="M122.849 30.9154C121.516 33.374 118.906 34.8414 115.866 34.8414C111.137 34.8414 107.571 31.3198 107.571 26.6507C107.571 21.9807 111.137 18.4583 115.866 18.4583C118.949 18.4583 121.552 19.9266 122.659 22.2916L123.487 24.0592L128.555 21.1486L127.873 19.6956C125.841 15.3725 121.24 12.6875 115.866 12.6875C107.705 12.6875 101.551 18.691 101.551 26.6507C101.551 34.6095 107.705 40.6121 115.866 40.6121C121.117 40.6121 125.777 37.973 128.028 33.7253L128.811 32.2472L123.735 29.2845L122.849 30.9154Z" fill="#191C20"/>
<path fill-rule="evenodd" clip-rule="evenodd" d="M152.714 26.6507C152.714 31.2434 149.091 34.8414 144.466 34.8414C139.814 34.8414 136.171 31.2434 136.171 26.6507C136.171 22.0571 139.814 18.4583 144.466 18.4583C149.091 18.4583 152.714 22.0571 152.714 26.6507ZM152.714 15.474C150.373 13.6472 147.478 12.6875 144.276 12.6875C136.356 12.6875 130.152 18.8204 130.152 26.6507C130.152 34.4792 136.356 40.6121 144.276 40.6121C147.478 40.6121 150.373 39.6524 152.714 37.8265V40.099H158.733V13.2006H152.714V15.474Z" fill="#191C20"/>
<path fill-rule="evenodd" clip-rule="evenodd" d="M173.975 12.6875C171.358 12.6875 169.101 13.3453 167.251 14.6473V13.2006H161.279V40.099H167.251V25.9965C167.251 21.1352 169.571 18.4583 173.785 18.4583C177.14 18.4583 178.988 20.3543 178.988 23.7986V40.099H185.008V23.7986C185.008 17.1526 180.574 12.6875 173.975 12.6875Z" fill="#191C20"/>
<path fill-rule="evenodd" clip-rule="evenodd" d="M196.533 6.47656H190.515V13.2007H185.277V19.0191H190.515V32.445C190.515 35.2028 191.32 37.2794 192.907 38.6201C194.296 39.791 196.188 40.3607 198.692 40.3607C199.709 40.3607 200.856 40.2663 202.1 40.0794L203.626 39.8512V34.3069L201.672 34.4749C200.232 34.5998 197.551 34.8334 196.932 34.2772C196.813 34.1694 196.533 33.7767 196.533 32.445V19.0191H203.626V13.2007H196.533V6.47656Z" fill="#191C20"/>
<path fill-rule="evenodd" clip-rule="evenodd" d="M216.619 23.8705C212.913 22.9377 211.597 22.377 211.597 21.0875C211.597 19.2715 213.564 18.4583 215.513 18.4583C217.654 18.4583 219.309 19.373 219.94 20.906L220.711 22.7796L225.901 19.8672L225.245 18.4124C223.632 14.8279 219.994 12.6875 215.513 12.6875C209.783 12.6875 205.624 16.2199 205.624 21.0875C205.624 26.9562 211.007 28.323 214.937 29.3213C218.708 30.2792 220.047 30.8597 220.047 32.2112C220.047 34.7147 216.428 34.8414 215.702 34.8414C213.007 34.8414 211.028 33.755 210.409 31.9353L209.711 29.8794L204.443 32.8843L204.977 34.2807C206.491 38.2452 210.5 40.6121 215.702 40.6121C221.68 40.6121 226.019 37.0789 226.019 32.2112C226.019 26.2338 220.362 24.8122 216.619 23.8705Z" fill="#191C20"/>
<path fill-rule="evenodd" clip-rule="evenodd" d="M16.6062 13.0062H10.5224C10.5526 10.793 11.0806 9.20516 12.0946 8.2841C13.1534 7.32351 14.9242 6.93262 17.3475 7.11323L19.283 7.2633V0.947996L17.6238 0.824889C13.3721 0.502295 9.98888 1.4557 7.56195 3.66084C5.22379 5.78871 3.96914 9.01735 3.92796 13.0062H0.207031V19.1786H3.92796V40.3333H10.5206V19.1786H16.6062V13.0062Z" fill="#191C20"/>
</g>
</svg>
