<svg width="32" height="32" viewBox="0 0 32 32" fill="none" xmlns="http://www.w3.org/2000/svg">
<g clip-path="url(#clip0_1_2)">
<path d="M26 0H6C2.68629 0 0 2.68629 0 6V26C0 29.3137 2.68629 32 6 32H26C29.3137 32 32 29.3137 32 26V6C32 2.68629 29.3137 0 26 0Z" fill="#B6F6DC"/>
<path d="M15.6476 9.04805L5.92844 18.7672C5.73318 18.9625 5.73318 19.2791 5.92844 19.4743L7.26841 20.8143C7.46367 21.0096 7.78025 21.0096 7.97552 20.8143L17.6947 11.0951C17.89 10.8999 17.89 10.5833 17.6947 10.388L16.3547 9.04805C16.1595 8.85278 15.8429 8.85278 15.6476 9.04805Z" fill="#111B1B"/>
<path d="M26.074 18.7696L16.3548 9.05046C16.1595 8.8552 15.8429 8.8552 15.6477 9.05046L14.3077 10.3904C14.1125 10.5857 14.1125 10.9023 14.3077 11.0975L24.0269 20.8167C24.2222 21.012 24.5387 21.012 24.734 20.8167L26.074 19.4768C26.2692 19.2815 26.2692 18.9649 26.074 18.7696Z" fill="#111B1B"/>
<path d="M16.9234 19.0023L12.2494 14.3283C12.0542 14.1331 11.7376 14.1331 11.5423 14.3283L10.2024 15.6683C10.0071 15.8636 10.0071 16.1801 10.2024 16.3754L14.8763 21.0494C15.0716 21.2446 15.3882 21.2446 15.5834 21.0494L16.9234 19.7094C17.1187 19.5142 17.1187 19.1976 16.9234 19.0023Z" fill="#111B1B"/>
</g>
<defs>
<clipPath id="clip0_1_2">
<rect width="32" height="32" fill="white"/>
</clipPath>
</defs>
</svg>
