<svg width="256" height="256" viewBox="0 0 256 256" fill="none" xmlns="http://www.w3.org/2000/svg">
<g clip-path="url(#clip0_1_2)">
<path d="M208 0H48C21.4903 0 0 21.4903 0 48V208C0 234.51 21.4903 256 48 256H208C234.51 256 256 234.51 256 208V48C256 21.4903 234.51 0 208 0Z" fill="#B6F6DC"/>
<path d="M125.181 72.3844L47.4275 150.138C45.8654 151.7 45.8654 154.233 47.4275 155.795L58.1473 166.514C59.7094 168.077 62.242 168.077 63.8041 166.514L141.558 88.761C143.12 87.1989 143.12 84.6662 141.558 83.1041L130.838 72.3844C129.276 70.8223 126.743 70.8223 125.181 72.3844Z" fill="#111B1B"/>
<path d="M208.592 150.157L130.838 72.4037C129.276 70.8416 126.744 70.8416 125.181 72.4037L114.462 83.1234C112.9 84.6855 112.9 87.2182 114.462 88.7803L192.215 166.534C193.777 168.096 196.31 168.096 197.872 166.534L208.592 155.814C210.154 154.252 210.154 151.719 208.592 150.157Z" fill="#111B1B"/>
<path d="M135.387 152.018L97.9954 114.627C96.4333 113.065 93.9007 113.065 92.3386 114.627L81.6189 125.346C80.0568 126.908 80.0568 129.441 81.6189 131.003L119.011 168.395C120.573 169.957 123.105 169.957 124.668 168.395L135.387 157.675C136.949 156.113 136.949 153.581 135.387 152.018Z" fill="#111B1B"/>
</g>
<defs>
<clipPath id="clip0_1_2">
<rect width="256" height="256" fill="white"/>
</clipPath>
</defs>
</svg>
